HIERARCHY
ROOT joint_Root
{
	OFFSET 0.0 0.0 0.0
	CHANNELS 6 Xposition Yposition Zposition Zrotation Xrotation Yrotation 
	JOINT Hips
	{
		OFFSET -0.726466 93.3139 -2.00062
		CHANNELS 6 Xposition Yposition Zposition Zrotation Xrotation Yrotation 
		JOINT Spine
		{
			OFFSET 15.7357 0.0 0.0
			CHANNELS 6 Xposition Yposition Zposition Zrotation Xrotation Yrotation 
			JOINT Chest
			{
				OFFSET 8.98455 -0.406207 0.0
				CHANNELS 6 Xposition Yposition Zposition Zrotation Xrotation Yrotation 
				JOINT Neck
				{
					OFFSET 16.3773 0.0 0.0
					CHANNELS 6 Xposition Yposition Zposition Zrotation Xrotation Yrotation 
					JOINT Head
					{
						OFFSET 6.45672 0.0 0.0
						CHANNELS 6 Xposition Yposition Zposition Zrotation Xrotation Yrotation 
						End Site
						{
							OFFSET 0.0 0.0 0.0
						}
					}
				}
				JOINT Shoulder_L
				{
					OFFSET 12.9942 -0.242716 4.98039
					CHANNELS 6 Xposition Yposition Zposition Zrotation Xrotation Yrotation 
					JOINT UpperArm_L
					{
						OFFSET 5.34809 0.0 0.0
						CHANNELS 6 Xposition Yposition Zposition Zrotation Xrotation Yrotation 
						JOINT LowerArm_L
						{
							OFFSET 24.3286 1.87007e-05 0.0
							CHANNELS 6 Xposition Yposition Zposition Zrotation Xrotation Yrotation 
							JOINT Hand_L
							{
								OFFSET 22.2916 0.0 0.0
								CHANNELS 6 Xposition Yposition Zposition Zrotation Xrotation Yrotation 
								End Site
								{
									OFFSET 0.0 0.0 0.0
								}
							}
						}
					}
				}
				JOINT Shoulder_R
				{
					OFFSET 12.9945 -0.242716 -4.98039
					CHANNELS 6 Xposition Yposition Zposition Zrotation Xrotation Yrotation 
					JOINT UpperArm_R
					{
						OFFSET -5.34813 0.0 0.0
						CHANNELS 6 Xposition Yposition Zposition Zrotation Xrotation Yrotation 
						JOINT LowerArm_R
						{
							OFFSET -24.3289 0.000322201 0.0
							CHANNELS 6 Xposition Yposition Zposition Zrotation Xrotation Yrotation 
							JOINT Hand_R
							{
								OFFSET -22.2915 -0.000108084 0.0
								CHANNELS 6 Xposition Yposition Zposition Zrotation Xrotation Yrotation 
								End Site
								{
									OFFSET 0.0 0.0 0.0
								}
							}
						}
					}
				}
			}
		}
		JOINT UpperLeg_L
		{
			OFFSET -2.19248 -6.46944 0.0
			CHANNELS 6 Xposition Yposition Zposition Zrotation Xrotation Yrotation 
			JOINT LowerLeg_L
			{
				OFFSET 39.0811 0.0 -1.23785e-05
				CHANNELS 6 Xposition Yposition Zposition Zrotation Xrotation Yrotation 
				JOINT Foot_L
				{
					OFFSET 40.9854 0.0 -1.26872e-05
					CHANNELS 6 Xposition Yposition Zposition Zrotation Xrotation Yrotation 
					JOINT Toes_L
					{
						OFFSET 11.7543 0.0 0.0
						CHANNELS 6 Xposition Yposition Zposition Zrotation Xrotation Yrotation 
						End Site
						{
							OFFSET 0.0 0.0 0.0
						}
					}
				}
			}
		}
		JOINT UpperLeg_R
		{
			OFFSET -2.19251 6.46944 0.0
			CHANNELS 6 Xposition Yposition Zposition Zrotation Xrotation Yrotation 
			JOINT LowerLeg_R
			{
				OFFSET -39.0811 -0.00228153 -0.0401928
				CHANNELS 6 Xposition Yposition Zposition Zrotation Xrotation Yrotation 
				JOINT Foot_R
				{
					OFFSET -40.9854 0.0 0.0
					CHANNELS 6 Xposition Yposition Zposition Zrotation Xrotation Yrotation 
					JOINT Toes_R
					{
						OFFSET -11.7543 0.0 0.0
						CHANNELS 6 Xposition Yposition Zposition Zrotation Xrotation Yrotation 
						End Site
						{
							OFFSET 0.0 0.0 0.0
						}
					}
				}
			}
		}
	}
}
MOTION
Frames:	5
Frame Time:	0.0333333
0.000000 0.000000 0.000000 0.000000 0.000000 -0.000000 0.197186 84.455100 -448.307000 89.517100 -7.291120 -10.134000 15.735700 0.000005 -0.000001 105.126000 79.960100 -104.436000 8.984550 -0.406207 -0.000000 11.621600 5.219770 0.849409 16.377300 -0.000001 -0.000001 2.116620 -0.921580 1.806280 6.456720 -0.000001 -0.000000 -3.834390 -4.457210 -3.602240 12.994200 -0.242716 4.980390 -88.058500 -4.161140 -64.959000 5.348090 -0.000007 -0.000001 -67.105900 35.792600 18.702100 24.328600 0.000019 0.000005 0.205050 0.239549 -40.578200 22.291600 -0.000001 0.000005 -6.930440 5.597250 -11.180200 12.994500 -0.242716 -4.980390 90.364500 -0.998522 -69.947300 -5.348130 -0.000001 -0.000004 -34.583900 21.372800 -42.752900 -24.328900 0.000322 -0.000009 -13.579100 -5.108470 -69.762400 -22.291500 -0.000108 -0.000004 5.217430 5.552360 -8.817930 -2.192480 -6.469440 -0.000000 176.692000 -10.700700 -41.251600 39.081100 -0.000007 -0.000012 0.099725 -0.001859 88.926800 40.985400 -0.000006 -0.000013 3.651330 -5.440670 -61.693400 11.754300 -0.000000 0.000003 -0.004098 -0.052462 -18.710800 -2.192510 6.469440 -0.000001 173.755000 13.294400 166.669000 -39.081100 -0.002282 -0.040193 0.006736 -0.002917 50.103300 -40.985400 0.000008 0.000006 -1.442150 5.958520 -79.902500 -11.754300 -0.000006 -0.000006 -0.055526 -0.316944 -29.646500
0.000000 0.000000 0.000000 0.000000 0.000000 -0.000000 0.625684 87.357800 -441.647000 91.036100 -7.732110 -10.846300 15.735700 0.000005 -0.000001 108.101000 80.259000 -108.341000 8.984550 -0.406207 -0.000000 10.808000 6.002840 -1.049140 16.377300 -0.000001 -0.000001 2.485890 -1.512270 1.561490 6.456720 -0.000001 -0.000000 -3.504210 -5.805820 -2.312660 12.994200 -0.242716 4.980390 -87.726200 -4.770930 -64.480200 5.348090 -0.000007 -0.000001 -66.951500 33.381400 21.538000 24.328600 0.000019 0.000005 1.075900 1.303000 -39.551700 22.291600 -0.000001 0.000005 -6.101690 5.590770 -10.805300 12.994500 -0.242716 -4.980390 90.672100 -1.791240 -69.429500 -5.348130 -0.000001 -0.000004 -34.706400 20.312100 -43.161300 -24.328900 0.000322 -0.000009 -12.792800 -4.364960 -71.467100 -22.291500 -0.000108 -0.000004 5.343310 5.549310 -8.673600 -2.192480 -6.469440 -0.000000 173.688000 -10.271100 -44.236000 39.081100 -0.000007 -0.000012 0.071355 -0.014276 78.680900 40.985400 -0.000006 -0.000013 3.472940 -5.211320 -63.938000 11.754300 -0.000000 0.000003 -0.005570 -0.066890 -19.298800 -2.192510 6.469440 -0.000001 170.519000 13.374100 173.623000 -39.081100 -0.002282 -0.040193 0.021296 -0.021348 40.165100 -40.985400 0.000008 0.000006 -1.981970 7.361840 -67.862200 -11.754300 -0.000006 -0.000006 -0.133807 -0.521709 -38.542800
0.000000 0.000000 0.000000 0.000000 0.000000 -0.000000 1.001540 90.314900 -435.110000 91.469700 -8.651170 -11.984300 15.735700 0.000005 -0.000001 111.381000 80.580000 -112.330000 8.984550 -0.406207 -0.000000 9.886390 6.808920 -2.488260 16.377300 -0.000001 -0.000001 3.009840 -1.335770 1.457930 6.456720 -0.000001 -0.000000 -3.544690 -6.605020 -1.437140 12.994200 -0.242716 4.980390 -87.214500 -5.668120 -63.774300 5.348090 -0.000007 -0.000001 -67.592200 30.739800 23.413800 24.328600 0.000019 0.000005 1.215240 1.445160 -40.068700 22.291600 -0.000001 0.000005 -5.857700 5.587970 -10.647500 12.994500 -0.242716 -4.980390 90.914700 -2.438080 -69.427400 -5.348130 -0.000001 -0.000004 -35.987800 20.423600 -42.287700 -24.328900 0.000322 -0.000009 -12.513100 -4.053880 -72.329100 -22.291500 -0.000108 -0.000004 5.169530 5.544640 -8.455310 -2.192480 -6.469440 -0.000000 172.126000 -10.794600 -44.895700 39.081100 -0.000007 -0.000012 0.056934 -0.028346 63.528600 40.985400 -0.000006 -0.000013 3.116880 -6.319740 -65.715600 11.754300 -0.000000 0.000003 -0.005411 -0.065395 -19.237800 -2.192510 6.469440 -0.000001 168.755000 13.633100 177.797000 -39.081100 -0.002282 -0.040193 0.062939 -0.095176 32.073100 -40.985400 0.000008 0.000006 -1.545160 8.721570 -51.347500 -11.754300 -0.000006 -0.000006 -0.236879 -0.703115 -47.009600
0.000000 0.000000 0.000000 0.000000 0.000000 -0.000000 1.290010 92.383800 -428.505000 90.334900 -9.254350 -12.431800 15.735700 0.000005 -0.000001 113.856000 80.540900 -114.973000 8.984550 -0.406207 -0.000000 9.673900 7.587780 -2.877410 16.377300 -0.000001 -0.000001 3.525610 -1.043420 1.366060 6.456720 -0.000001 -0.000000 -4.423030 -6.768040 -0.784418 12.994200 -0.242716 4.980390 -86.709700 -6.523150 -63.158000 5.348090 -0.000007 -0.000001 -68.491800 28.043300 24.127900 24.328600 0.000019 0.000005 0.177176 0.199103 -41.692400 22.291600 -0.000001 0.000005 -5.473760 5.590340 -10.780600 12.994500 -0.242716 -4.980390 91.022000 -2.751180 -69.611200 -5.348130 -0.000001 -0.000004 -37.650100 21.067600 -41.033200 -24.328900 0.000322 -0.000009 -12.158100 -3.988150 -72.106100 -22.291500 -0.000108 -0.000004 4.843560 5.545240 -8.483650 -2.192480 -6.469440 -0.000000 172.867000 -11.377100 -42.486700 39.081100 -0.000007 -0.000012 0.038323 -0.037620 45.527700 40.985400 -0.000006 -0.000013 2.886250 -6.431290 -66.611200 11.754300 -0.000000 0.000003 -0.005557 -0.066764 -19.293700 -2.192510 6.469440 -0.000001 168.179000 13.491700 -179.054000 -39.081100 -0.002282 -0.040193 0.103340 -0.197300 26.885300 -40.985400 0.000008 0.000006 -4.138230 9.780630 -36.091100 -11.754300 -0.000006 -0.000006 -0.153729 -0.562048 -40.366900
0.000000 0.000000 0.000000 0.000000 0.000000 -0.000000 1.168760 93.027400 -421.314000 88.239600 -9.051870 -11.161700 15.735700 0.000005 -0.000001 114.187000 79.976300 -115.001000 8.984550 -0.406207 -0.000000 10.659000 8.136080 -2.387980 16.377300 -0.000001 -0.000001 3.996610 -0.834689 1.337850 6.456720 -0.000001 -0.000000 -5.987590 -6.518840 -0.202168 12.994200 -0.242716 4.980390 -86.385000 -7.101990 -62.933000 5.348090 -0.000007 -0.000001 -69.141200 25.297000 23.636000 24.328600 0.000019 0.000005 -1.243510 -1.305400 -43.610800 22.291600 -0.000001 0.000005 -4.280920 5.591790 -10.862300 12.994500 -0.242716 -4.980390 91.023200 -2.781830 -69.796900 -5.348130 -0.000001 -0.000004 -40.019100 21.940900 -39.183300 -24.328900 0.000322 -0.000009 -11.875200 -4.229690 -70.669800 -22.291500 -0.000108 -0.000004 4.858260 5.550290 -8.719500 -2.192480 -6.469440 -0.000000 176.163000 -10.757700 -37.458900 39.081100 -0.000007 -0.000012 0.015889 -0.028074 29.507900 40.985400 -0.000006 -0.000013 1.685150 -4.746710 -67.302300 11.754300 -0.000000 0.000003 -0.005354 -0.064857 -19.215900 -2.192510 6.469440 -0.000001 168.542000 12.624000 -174.654000 -39.081100 -0.002282 -0.040193 0.120879 -0.252396 24.976400 -40.985400 0.000008 0.000006 -7.443240 7.175630 -27.327100 -11.754300 -0.000006 -0.000006 -0.021826 -0.177199 -23.816400
